
<svg width="200" height="200" viewBox="0 0 200 200" fill="none" xmlns="http://www.w3.org/2000/svg">
  <!-- Background shape -->
  <rect width="200" height="200" rx="40" fill="#3b82f6" />
  
  <!-- Shoe outline -->
  <path d="M155 105C155 105 140 115 130 115C120 115 100 105 90 105C80 105 70 115 65 115C60 115 50 105 50 105C50 105 45 95 45 85C45 75 50 70 55 65C60 60 70 55 80 55C90 55 100 60 110 70C120 80 125 90 135 90C145 90 150 80 150 80C150 80 160 90 160 100C160 110 155 105 155 105Z" stroke="white" stroke-width="6"/>
  
  <!-- X letter -->
  <path d="M75 140L90 125M90 140L75 125" stroke="white" stroke-width="6" stroke-linecap="round"/>
  
  <!-- Letter outlines -->
  <path d="M100 140V125H115V140" stroke="white" stroke-width="6" stroke-linecap="round" stroke-linejoin="round"/>
  <path d="M125 140V125M125 132.5H135M135 125V140" stroke="white" stroke-width="6" stroke-linecap="round" stroke-linejoin="round"/>
</svg>
